<?xml version="1.0" encoding="utf-8"?>
<!-- Generator: Adobe Illustrator 25.3.1, SVG Export Plug-In . SVG Version: 6.00 Build 0)  -->
<svg version="1.1" id="图层_1" xmlns="http://www.w3.org/2000/svg" xmlns:xlink="http://www.w3.org/1999/xlink" x="0px" y="0px"
	 width="24px" height="24px" viewBox="0 0 24 24" style="enable-background:new 0 0 24 24;" xml:space="preserve">
<style type="text/css">
	.st0{fill:url(#SVGID_1_);}
</style>
<linearGradient id="SVGID_1_" gradientUnits="userSpaceOnUse" x1="0" y1="12" x2="24" y2="12">
	<stop  offset="0" style="stop-color:#FF418A"/>
	<stop  offset="0.3974" style="stop-color:#FF2A7D"/>
	<stop  offset="1" style="stop-color:#130094"/>
</linearGradient>
<path class="st0" d="M18.6,6.6c-1.4,0-2.8,0.6-3.8,1.5l-7,6.2c-0.6,0.6-1.5,1-2.4,1C3.5,15.4,2,13.9,2,12s1.5-3.4,3.4-3.4
	c0.9,0,1.8,0.4,2.4,1l1.1,1l1.5-1.3L9.2,8.2c-1-1-2.4-1.6-3.8-1.6C2.4,6.6,0,9,0,12s2.4,5.4,5.4,5.4c1.4,0,2.8-0.6,3.8-1.5l7-6.2
	c0.6-0.6,1.5-1,2.4-1c1.9,0,3.4,1.5,3.4,3.4s-1.5,3.4-3.4,3.4c-0.9,0-1.8-0.4-2.4-1l-1.2-1l-1.5,1.3l1.3,1.1c1,1,2.4,1.6,3.8,1.6
	c3,0,5.4-2.4,5.4-5.4C24,9,21.6,6.6,18.6,6.6z"/>
</svg>
