<?xml version="1.0" encoding="utf-8"?>
<!-- Generator: Adobe Illustrator 25.3.1, SVG Export Plug-In . SVG Version: 6.00 Build 0)  -->
<svg version="1.1" id="图层_1" xmlns="http://www.w3.org/2000/svg" xmlns:xlink="http://www.w3.org/1999/xlink" x="0px" y="0px"
	 width="224.5px" height="222.5px" viewBox="0 0 224.5 222.5" style="enable-background:new 0 0 224.5 222.5;" xml:space="preserve"
	>
<style type="text/css">
	.st0{fill:#EFEFEF;}
	.st1{fill:#1340F5;}
	.st2{fill:#FFFFFF;stroke:#1340F5;stroke-width:20;stroke-miterlimit:10;}
	.st3{fill:#1340F5;stroke:#1340F5;stroke-miterlimit:10;}
</style>
<path class="st0" d="M150.2,202.3H74.3c-29.5,0-53.4-23.9-53.4-53.4V73.1C21,43.7,45,19.8,74.3,19.8h75.8
	c29.5,0,53.4,23.9,53.4,53.4V149C203.6,178.4,179.7,202.3,150.2,202.3z"/>
<g>
	<path class="st1" d="M144.6,102.1h16.3c1.8,0,3.2,1.2,3.2,2.6v13.2c0,1.4-1.4,2.6-3.2,2.6h-16.3c-1.8,0-3.2-1.2-3.2-2.6v-13.2
		C141.3,103.2,142.8,102.1,144.6,102.1z"/>
</g>
<circle class="st2" cx="81.9" cy="111.1" r="36.7"/>
<circle class="st3" cx="181.6" cy="111.2" r="9"/>
</svg>
