<?xml version="1.0" encoding="utf-8"?>
<!-- Generator: Adobe Illustrator 25.3.1, SVG Export Plug-In . SVG Version: 6.00 Build 0)  -->
<svg version="1.1" id="图层_1" xmlns="http://www.w3.org/2000/svg" xmlns:xlink="http://www.w3.org/1999/xlink" x="0px" y="0px"
	 width="24px" height="24px" viewBox="0 0 24 24" style="enable-background:new 0 0 24 24;" xml:space="preserve">
<style type="text/css">
	.st0{fill:url(#SVGID_1_);}
</style>
<linearGradient id="SVGID_1_" gradientUnits="userSpaceOnUse" x1="1" y1="12" x2="24" y2="12">
	<stop  offset="0" style="stop-color:#FFFFFF"/>
	<stop  offset="0" style="stop-color:#000000"/>
	<stop  offset="9.383267e-03" style="stop-color:#FFFFFF"/>
	<stop  offset="3.959987e-02" style="stop-color:#0001D4"/>
	<stop  offset="1" style="stop-color:#FF418A"/>
</linearGradient>
<path class="st0" d="M4,8H2V2h2V8 M2,22h2v-6H2V22 M3,10c-1.1,0-2,0.9-2,2c0,1.1,0.9,2,2,2c1.1,0,2-0.9,2-2C5,10.9,4.1,10,3,10
	 M24,6v12c0,1.1-0.9,2-2,2H10c-1.1,0-2-0.9-2-2v-4l-2-2l2-2V6c0-1.1,0.9-2,2-2h12C23.1,4,24,4.9,24,6 M19.8,10.3l-1.2-1.4L15,12.5
	l-1.6-1.6l-1.2,1.2l2.8,3L19.8,10.3z"/>
</svg>
